<?xml version="1.0" standalone="no"?>
<!DOCTYPE svg PUBLIC "-//W3C//DTD SVG 20010904//EN"
 "http://www.w3.org/TR/2001/REC-SVG-20010904/DTD/svg10.dtd">
<svg version="1.0" xmlns="http://www.w3.org/2000/svg"
 width="64.000000pt" height="64.000000pt" viewBox="0 0 64.000000 64.000000"
 preserveAspectRatio="xMidYMid meet">

<g transform="translate(0.000000,64.000000) scale(0.100000,-0.100000)"
fill="#000000" stroke="none">
<path d="M272 496 c-126 -125 -145 -148 -145 -176 0 -27 18 -50 139 -171 76
-77 149 -142 161 -145 34 -9 62 5 79 38 22 43 8 69 -91 168 -62 62 -85 91 -85
110 0 19 22 47 81 105 99 98 115 126 98 166 -6 17 -20 34 -30 39 -43 23 -61
11 -207 -134z"/>
</g>
</svg>
