<svg width="290.001" height="130.304" viewBox="0 0 290.001 130.304" xmlns="http://www.w3.org/2000/svg"><g id="svgGroup" stroke-linecap="round" fill-rule="evenodd" font-size="9pt" stroke="black" stroke-width="0.25mm" fill="white" style="stroke:#ffffff;stroke-width:0.25mm;fill:#000"><path d="M 52.801 83.903 L 53.101 82.003 Q 45.201 85.303 37.601 85.303 A 48.975 48.975 0 0 1 27.384 84.282 A 38.164 38.164 0 0 1 17.901 80.953 Q 9.401 76.603 4.701 68.603 A 33.973 33.973 0 0 1 0.373 55.76 A 43.341 43.341 0 0 1 0.001 50.003 Q 0.001 35.203 5.601 23.853 A 45.114 45.114 0 0 1 13.876 12.043 A 40.462 40.462 0 0 1 21.051 6.253 Q 30.901 0.003 43.101 0.003 Q 54.801 0.003 60.651 5.453 Q 66.501 10.903 66.501 19.903 A 26.357 26.357 0 0 1 66.247 23.682 Q 65.762 27.023 64.351 29.353 A 7.942 7.942 0 0 1 62.567 31.446 Q 60.876 32.812 58.518 32.897 A 8.771 8.771 0 0 1 58.201 32.903 A 9.155 9.155 0 0 1 56.396 32.735 Q 55.28 32.511 54.406 31.986 A 5.331 5.331 0 0 1 53.851 31.603 A 4.222 4.222 0 0 1 52.221 28.503 A 5.975 5.975 0 0 1 52.201 28.003 Q 52.201 27.003 52.601 24.603 Q 53.201 21.803 53.201 20.203 A 11.088 11.088 0 0 0 52.9 17.54 A 7.434 7.434 0 0 0 50.651 13.703 Q 48.294 11.577 42.988 11.416 A 29.317 29.317 0 0 0 42.101 11.403 Q 34.801 11.403 28.551 15.603 A 25.856 25.856 0 0 0 21.993 22.054 A 35.791 35.791 0 0 0 18.501 28.153 Q 14.701 36.503 14.701 48.203 A 35.397 35.397 0 0 0 15.406 55.491 Q 16.85 62.352 21.251 66.753 A 21.06 21.06 0 0 0 30.317 72.004 Q 33.589 72.978 37.513 73.222 A 43.409 43.409 0 0 0 40.201 73.303 A 34.348 34.348 0 0 0 49.046 72.096 A 44.478 44.478 0 0 0 54.601 70.203 L 56.001 58.003 L 45.801 58.003 A 9.314 9.314 0 0 1 44.141 57.864 Q 42.521 57.571 41.501 56.653 A 4.017 4.017 0 0 1 40.45 55.07 Q 40.001 53.898 40.001 52.203 Q 40.001 49.862 41.049 48.36 A 4.984 4.984 0 0 1 41.501 47.803 A 4.983 4.983 0 0 1 44.59 46.26 A 7.004 7.004 0 0 1 45.501 46.203 L 64.201 46.203 A 5.474 5.474 0 0 1 66.07 46.511 A 4.797 4.797 0 0 1 67.851 47.653 A 3.996 3.996 0 0 1 68.935 49.711 Q 69.108 50.537 69.026 51.546 A 8.873 8.873 0 0 1 69.001 51.803 A 61.064 61.064 0 0 1 68.839 53.288 Q 68.382 57.122 67.001 66.303 L 65.901 73.903 A 391.083 391.083 0 0 1 73.093 68.63 Q 76.507 66.189 79.618 64.094 A 232.777 232.777 0 0 1 80.501 63.503 A 7.207 7.207 0 0 1 81.284 63.081 Q 82.113 62.703 82.801 62.703 A 2.186 2.186 0 0 1 84.537 63.512 A 3.273 3.273 0 0 1 84.851 63.953 Q 85.601 65.203 85.601 67.103 Q 85.601 68.6 85.304 69.673 A 4.943 4.943 0 0 1 84.901 70.703 Q 84.201 72.003 82.701 73.003 Q 76.801 76.903 63.901 85.803 Q 61.344 99.373 57.799 109.162 A 76.186 76.186 0 0 1 53.801 118.403 A 32.956 32.956 0 0 1 50.385 123.748 Q 48.177 126.513 45.646 128.112 A 13.86 13.86 0 0 1 38.101 130.303 A 13.461 13.461 0 0 1 34.271 129.783 A 10.533 10.533 0 0 1 29.801 127.153 A 10.575 10.575 0 0 1 26.713 120.747 A 14.662 14.662 0 0 1 26.601 118.903 A 22.583 22.583 0 0 1 27.782 111.797 A 27.337 27.337 0 0 1 28.701 109.403 A 26.39 26.39 0 0 1 30.576 105.926 Q 32.778 102.437 36.551 98.303 A 82.507 82.507 0 0 1 41.065 93.759 Q 43.488 91.489 46.422 89.025 A 197.758 197.758 0 0 1 52.801 83.903 Z M 130.027 84.72 A 5.504 5.504 0 0 0 132.601 85.303 A 10.201 10.201 0 0 0 133.588 85.257 Q 135.942 85.028 137.151 83.653 A 5.867 5.867 0 0 0 137.801 82.729 Q 138.855 80.919 139.701 77.303 A 80.755 80.755 0 0 1 140.218 75.271 A 90.455 90.455 0 0 1 143.151 66.303 A 75.388 75.388 0 0 1 144.167 63.788 Q 145.021 61.783 145.897 60.084 A 37.32 37.32 0 0 1 147.601 57.103 A 26.134 26.134 0 0 1 147.967 56.546 Q 149.398 54.427 150.501 53.784 A 1.804 1.804 0 0 1 151.401 53.503 A 1.452 1.452 0 0 1 151.46 53.504 Q 152.292 53.538 152.459 54.539 A 3.445 3.445 0 0 1 152.501 55.103 A 15.446 15.446 0 0 1 152.485 55.765 Q 152.412 57.443 152.013 60.914 A 264.391 264.391 0 0 1 151.701 63.503 A 178.447 178.447 0 0 0 151.392 65.832 Q 150.935 69.479 150.78 72.097 A 41.155 41.155 0 0 0 150.701 74.503 Q 150.701 76.612 151.064 78.425 A 13.837 13.837 0 0 0 152.351 82.153 A 7.682 7.682 0 0 0 152.859 82.992 Q 153.671 84.154 154.79 84.732 A 5.393 5.393 0 0 0 157.301 85.303 Q 158.976 85.303 160.172 84.865 A 4.39 4.39 0 0 0 161.951 83.703 A 5.638 5.638 0 0 0 162.661 82.69 Q 163.341 81.488 163.934 79.487 A 36.157 36.157 0 0 0 164.501 77.303 Q 166.001 71.203 168.401 65.703 Q 170.801 60.203 173.201 56.853 A 27.276 27.276 0 0 1 173.807 56.037 Q 175.77 53.503 176.901 53.503 A 1.452 1.452 0 0 1 176.96 53.504 Q 177.792 53.538 177.959 54.539 A 3.445 3.445 0 0 1 178.001 55.103 A 10.115 10.115 0 0 1 177.997 55.381 Q 177.946 57.239 177.239 61.064 A 135.129 135.129 0 0 1 176.701 63.803 A 187.798 187.798 0 0 0 176.503 64.834 Q 175.615 69.542 175.383 72.189 A 18.845 18.845 0 0 0 175.301 73.803 A 21.172 21.172 0 0 0 175.389 75.774 Q 175.551 77.509 176.013 78.939 A 9.508 9.508 0 0 0 177.901 82.353 Q 179.668 84.358 182.59 85 A 14.03 14.03 0 0 0 185.601 85.303 Q 191.901 85.303 196.851 81.903 Q 201.801 78.503 206.101 73.203 A 6.749 6.749 0 0 0 207.004 71.854 Q 208.001 69.901 208.001 67.003 Q 208.001 65.773 207.743 64.851 A 4.376 4.376 0 0 0 207.251 63.703 A 3.165 3.165 0 0 0 206.95 63.295 A 2.225 2.225 0 0 0 205.201 62.503 A 3.137 3.137 0 0 0 203.341 63.12 A 4.764 4.764 0 0 0 202.501 63.903 Q 197.901 69.403 195.151 71.853 A 18.563 18.563 0 0 1 194.586 72.337 Q 193.111 73.549 191.865 74.013 A 4.196 4.196 0 0 1 190.401 74.303 A 4.066 4.066 0 0 1 190.272 74.301 Q 188.066 74.231 187.616 71.738 A 8.127 8.127 0 0 1 187.501 70.303 A 12.459 12.459 0 0 1 187.538 69.402 Q 187.709 67.077 188.661 62.327 A 209.257 209.257 0 0 1 189.401 58.803 Q 191.068 51.073 191.472 46.962 A 23.598 23.598 0 0 0 191.601 44.703 A 9.576 9.576 0 0 0 191.324 42.296 Q 190.558 39.351 187.673 38.525 A 9.357 9.357 0 0 0 185.101 38.203 A 11.699 11.699 0 0 0 180.843 39.056 Q 179.043 39.756 177.161 41.033 A 30.349 30.349 0 0 0 173.701 43.803 A 24.279 24.279 0 0 0 173.631 43.867 Q 169.477 47.711 165.833 54.67 A 80.726 80.726 0 0 0 162.601 61.703 A 123.014 123.014 0 0 1 162.602 61.699 Q 162.827 60.35 163.332 57.99 A 228.8 228.8 0 0 1 163.701 56.303 Q 165.141 49.937 165.49 46.558 A 18.458 18.458 0 0 0 165.601 44.703 A 12.369 12.369 0 0 0 165.511 43.162 Q 165.395 42.239 165.129 41.492 A 4.939 4.939 0 0 0 164.151 39.803 A 3.615 3.615 0 0 0 164.05 39.696 Q 162.582 38.203 159.201 38.203 A 9.832 9.832 0 0 0 157.451 38.363 Q 154.729 38.855 151.751 40.853 A 20.976 20.976 0 0 0 149.91 42.246 Q 146.922 44.769 144.051 48.903 A 39.608 39.608 0 0 0 143.529 49.674 Q 140.111 54.851 137.601 62.103 Q 138.001 57.703 138.601 54.753 A 117.266 117.266 0 0 1 139.015 52.807 Q 139.242 51.782 139.507 50.655 A 217.888 217.888 0 0 1 140.201 47.803 A 131.293 131.293 0 0 0 140.706 45.864 Q 141.434 42.969 141.629 41.494 A 7.037 7.037 0 0 0 141.701 40.603 Q 141.701 39.941 141.522 39.481 A 1.541 1.541 0 0 0 140.901 38.703 A 2.213 2.213 0 0 0 140.484 38.505 Q 139.655 38.203 138.101 38.203 A 17.019 17.019 0 0 0 136.29 38.294 Q 135.197 38.411 134.289 38.679 A 7.202 7.202 0 0 0 132.351 39.553 A 6.654 6.654 0 0 0 130.238 41.846 A 9.683 9.683 0 0 0 129.401 43.803 A 76.942 76.942 0 0 0 128.845 45.639 A 81.944 81.944 0 0 0 125.701 68.503 A 85.718 85.718 0 0 0 125.753 71.555 Q 125.904 75.804 126.502 78.673 A 16.809 16.809 0 0 0 127.251 81.303 A 8.457 8.457 0 0 0 127.992 82.792 Q 128.82 84.093 130.027 84.72 Z M 234.701 72.103 L 236.001 70.503 A 212.651 212.651 0 0 0 239.175 66.487 Q 242.163 62.604 244.04 59.71 A 57.531 57.531 0 0 0 244.301 59.303 A 62.792 62.792 0 0 0 245.422 57.3 Q 246.72 54.887 248.301 51.553 Q 250.601 46.703 252.801 41.503 Q 254.685 37.141 260.598 37.103 A 16.214 16.214 0 0 1 260.701 37.103 A 24.733 24.733 0 0 1 261.995 37.134 Q 263.163 37.196 263.92 37.378 A 3.822 3.822 0 0 1 264.601 37.603 A 2.248 2.248 0 0 1 265.157 37.953 A 1.583 1.583 0 0 1 265.701 39.202 Q 265.701 39.658 265.471 40.517 A 16.869 16.869 0 0 1 265.301 41.103 A 14.116 14.116 0 0 1 264.453 43.215 A 16.071 16.071 0 0 1 264.201 43.703 A 23.412 23.412 0 0 0 263.252 45.846 Q 262.401 48.084 262.401 49.803 A 5.085 5.085 0 0 0 262.617 51.224 Q 262.877 52.119 263.451 53.103 A 21.516 21.516 0 0 0 264.22 54.316 Q 265.124 55.652 266.503 57.358 A 73.042 73.042 0 0 0 266.701 57.603 A 96.454 96.454 0 0 1 268.718 60.343 Q 270.468 62.817 271.551 64.753 Q 273.201 67.703 273.201 71.203 Q 273.201 71.969 273.084 73.203 A 50.435 50.435 0 0 1 273.001 74.003 A 14.721 14.721 0 0 0 276.06 72.32 Q 278.992 70.274 282.424 66.375 A 73.384 73.384 0 0 0 284.501 63.903 A 4.764 4.764 0 0 1 285.341 63.12 A 3.137 3.137 0 0 1 287.201 62.503 A 2.225 2.225 0 0 1 288.95 63.295 A 3.165 3.165 0 0 1 289.251 63.703 A 4.376 4.376 0 0 1 289.743 64.851 Q 290.001 65.773 290.001 67.003 Q 290.001 70.73 288.174 73.11 A 7.94 7.94 0 0 1 288.101 73.203 A 48.689 48.689 0 0 1 285.02 76.692 Q 283.376 78.372 281.783 79.6 A 19.456 19.456 0 0 1 278.551 81.653 A 21.732 21.732 0 0 1 273.813 83.312 Q 271.599 83.826 269.043 84.014 A 39.966 39.966 0 0 1 267.301 84.103 Q 263.301 87.503 257.801 87.503 Q 252.601 87.503 249.851 85.103 A 9.419 9.419 0 0 1 248.285 83.382 A 6.34 6.34 0 0 1 247.101 79.703 A 6.138 6.138 0 0 1 248.942 75.263 A 7.796 7.796 0 0 1 249.001 75.203 Q 250.901 73.303 254.601 73.303 Q 255.901 73.303 257.651 73.553 Q 258.991 73.744 259.832 73.848 A 40.679 40.679 0 0 0 260.301 73.903 Q 260.201 71.303 259.151 69.003 Q 258.101 66.703 256.501 64.553 A 73.558 73.558 0 0 0 255.045 62.658 Q 254.245 61.653 253.501 60.803 Q 250.976 65.608 248.485 69.087 A 44.956 44.956 0 0 1 247.351 70.603 Q 244.301 74.503 240.701 78.003 A 7.358 7.358 0 0 1 239.447 79.023 Q 238.507 79.619 237.516 79.76 A 4.38 4.38 0 0 1 236.901 79.803 A 3.613 3.613 0 0 1 235.595 79.575 A 3.242 3.242 0 0 1 234.301 78.653 Q 233.301 77.503 233.301 75.803 A 5.553 5.553 0 0 1 234.335 72.587 A 7.179 7.179 0 0 1 234.701 72.103 Z M 246.25 63.295 A 2.225 2.225 0 0 0 244.501 62.503 A 3.137 3.137 0 0 0 242.641 63.12 A 4.764 4.764 0 0 0 241.801 63.903 Q 237.601 69.003 231.851 72.153 A 34.393 34.393 0 0 1 229.15 73.489 Q 225.016 75.303 221.601 75.303 A 19.888 19.888 0 0 1 220.624 75.28 Q 218.753 75.187 217.235 74.734 A 8.254 8.254 0 0 1 212.101 70.703 Q 219.856 68.797 224.653 66.006 A 20.43 20.43 0 0 0 228.851 62.853 Q 233.801 57.903 233.801 51.003 A 16.681 16.681 0 0 0 233.493 47.716 A 11.46 11.46 0 0 0 230.301 41.653 Q 226.801 38.203 221.001 38.203 Q 214.501 38.203 209.351 41.703 Q 204.201 45.203 201.301 51.153 Q 198.401 57.103 198.401 64.003 A 27.897 27.897 0 0 0 198.982 69.847 A 18.867 18.867 0 0 0 204.201 79.603 Q 210.001 85.303 220.501 85.303 Q 228.201 85.303 234.951 81.503 A 53.631 53.631 0 0 0 236.715 80.466 Q 242.2 77.097 245.401 73.203 A 6.749 6.749 0 0 0 246.304 71.854 Q 247.301 69.901 247.301 67.003 Q 247.301 65.773 247.043 64.851 A 4.376 4.376 0 0 0 246.551 63.703 A 3.165 3.165 0 0 0 246.25 63.295 Z M 86.095 84.531 A 13.778 13.778 0 0 0 90.801 85.303 Q 98.701 85.303 103.901 76.903 A 16.672 16.672 0 0 0 104.922 79.206 A 12.716 12.716 0 0 0 108.051 83.053 A 11.7 11.7 0 0 0 108.484 83.391 A 9.221 9.221 0 0 0 114.101 85.303 A 10.999 10.999 0 0 0 116.146 85.108 Q 117.983 84.761 119.874 83.796 A 20.867 20.867 0 0 0 123.001 81.803 A 44.987 44.987 0 0 0 126.381 78.953 A 54.085 54.085 0 0 0 131.701 73.203 A 6.749 6.749 0 0 0 132.604 71.854 Q 133.601 69.901 133.601 67.003 Q 133.601 65.773 133.343 64.851 A 4.376 4.376 0 0 0 132.851 63.703 A 3.165 3.165 0 0 0 132.55 63.295 A 2.225 2.225 0 0 0 130.801 62.503 A 3.137 3.137 0 0 0 128.941 63.12 A 4.764 4.764 0 0 0 128.101 63.903 A 181.098 181.098 0 0 1 126.605 65.669 Q 123.046 69.816 120.801 71.853 Q 118.101 74.303 116.201 74.303 A 3.041 3.041 0 0 1 115.98 74.295 A 2.394 2.394 0 0 1 114.251 73.403 A 2.866 2.866 0 0 1 114.049 73.129 Q 113.731 72.64 113.598 72.004 A 4.872 4.872 0 0 1 113.501 71.003 A 19.067 19.067 0 0 1 113.504 70.683 Q 113.561 67.254 114.822 60.163 A 245.902 245.902 0 0 1 115.801 55.003 A 306.979 306.979 0 0 0 115.988 54.011 Q 117.301 46.968 117.301 45.003 A 4.851 4.851 0 0 0 117.299 44.862 Q 117.201 41.503 112.401 41.503 Q 110.101 41.503 108.001 41.903 A 16.337 16.337 0 0 0 107.834 41.231 Q 107.38 39.566 106.751 38.853 A 1.767 1.767 0 0 0 106.37 38.532 Q 105.537 38.003 103.801 38.003 A 21.082 21.082 0 0 0 97.599 38.927 A 24.014 24.014 0 0 0 90.751 42.353 Q 84.601 46.703 80.901 53.853 Q 77.201 61.003 77.201 69.003 A 28.402 28.402 0 0 0 77.203 69.361 Q 77.292 76.414 80.901 80.803 A 11.86 11.86 0 0 0 86.095 84.531 Z M 101.501 65.703 L 105.201 47.303 A 11.707 11.707 0 0 0 98.691 49.492 A 15.265 15.265 0 0 0 97.451 50.453 A 19.709 19.709 0 0 0 93.335 55.432 A 25.263 25.263 0 0 0 91.801 58.503 Q 89.701 63.503 89.701 69.103 A 12.33 12.33 0 0 0 89.8 70.72 Q 90.05 72.608 90.935 73.684 A 3.841 3.841 0 0 0 90.951 73.703 A 4.086 4.086 0 0 0 93.737 75.166 A 5.852 5.852 0 0 0 94.401 75.203 Q 96.601 75.203 98.601 72.603 Q 100.601 70.003 101.501 65.703 Z M 39.201 120.603 A 3.001 3.001 0 0 0 40.853 120.041 Q 42.578 118.901 44.498 115.449 A 35.587 35.587 0 0 0 44.901 114.703 A 34.824 34.824 0 0 0 46.613 110.815 Q 48.76 105.119 50.701 95.703 A 90.792 90.792 0 0 0 46.366 99.643 Q 42.124 103.776 39.826 107.337 A 26.897 26.897 0 0 0 39.751 107.453 Q 36.401 112.703 36.401 116.703 A 7.999 7.999 0 0 0 36.512 118.102 Q 36.949 120.547 39.101 120.602 A 3.914 3.914 0 0 0 39.201 120.603 Z M 210.501 62.703 L 210.501 62.903 A 31.232 31.232 0 0 0 214.536 61.671 Q 216.582 60.881 218.204 59.854 A 15.789 15.789 0 0 0 219.801 58.703 A 10.841 10.841 0 0 0 221.737 56.672 A 7.5 7.5 0 0 0 223.201 52.203 A 5.579 5.579 0 0 0 223.054 50.887 A 3.877 3.877 0 0 0 222.151 49.153 A 3.462 3.462 0 0 0 220.053 48.058 A 4.943 4.943 0 0 0 219.301 48.003 A 6.081 6.081 0 0 0 215.125 49.683 Q 214.007 50.69 213.051 52.303 Q 210.501 56.603 210.501 62.703 Z" vector-effect="non-scaling-stroke"/></g></svg>