<svg width="500" height="300" xmlns="http://www.w3.org/2000/svg">

 <g>
  <title>Layer 1</title>
  <path d="m126,104c1,0 2.29289,0.70711 3,0c0.70711,-0.70711 1.07613,-1.61731 2,-2c1.30656,-0.5412 1.29289,-1.29289 2,-2c0.70711,-0.70711 0.29289,-1.29289 1,-2c0.70711,-0.70711 1.29289,-1.29289 2,-2c0.70711,-0.70711 0.29289,-1.29289 1,-2c0.70711,-0.70711 0.29289,-1.29289 1,-2c0.70711,-0.70711 0.61731,-1.07613 1,-2c0.5412,-1.30656 1,-2 1,-3c0,-1 0,-2 0,-3c0,-1 0,-2 0,-3c0,-1 -1,-1 -1,-2c0,-1 -1,-1 -1,-2c0,-1 -1.29289,-1.29289 -2,-2c-0.70711,-0.70711 -0.29289,-1.29289 -1,-2c-0.70711,-0.70711 -0.61731,-1.07613 -1,-2c-0.5412,-1.30656 -1.14935,-1.47427 -2,-2c-1.90211,-1.17557 -2.29289,-1.29289 -3,-2c-0.70711,-0.70711 -0.29289,-1.29289 -1,-2c-0.70711,-0.70711 -1.29289,-0.29289 -2,-1c-0.70711,-0.70711 -2,0 -3,0c-1,0 -2,0 -3,0c-1,0 -2,0 -3,0c-1,0 -2,0 -3,0c-1,0 -2,0 -3,0c-1,0 -1,1 -2,1c-1,0 -2.29289,1.29289 -3,2c-1.41422,1.41422 -3.4588,-0.30656 -4,1c-0.38268,0.92387 -1.69344,1.4588 -3,2c-1.84776,0.76537 -2.186,0.69255 -4,2c-1.14727,0.8269 -2.2987,0.94853 -4,2c-1.90211,1.17557 -2.85273,2.1731 -4,3c-1.814,1.30745 -3.41886,1.41885 -5,3c-1.58114,1.58115 -3,3 -4,4c-1,1 -2.69255,2.186 -4,4c-0.8269,1.14726 -3.1731,1.85274 -4,3c-1.30745,1.814 -2,3 -3,4c-1,1 -1.4588,1.69344 -2,3c-0.38268,0.92387 -1.29289,1.29289 -2,2c-0.70711,0.70711 -0.61732,3.07613 -1,4c-0.5412,1.30656 -1,2 -1,3c0,2 0,3 0,4c0,2 0,3 0,4c0,2 0,3 0,4c0,2 0.48626,2.82375 1,5c0.22975,0.97325 0.61732,3.07613 1,4c0.5412,1.30656 1.77025,3.02675 2,4c0.51374,2.17625 1.4588,2.69344 2,4c0.38268,0.92387 1.4588,2.69344 2,4c0.38268,0.92387 1,1 1,2c0,1 0.61732,1.07613 1,2c0.5412,1.30656 1.29289,1.29289 2,2c0.70711,0.70711 1.29289,0.29289 2,1c0.70711,0.70709 0.29289,1.29291 1,2c0.70711,0.70709 1.29289,0.29291 2,1c0.70711,0.70709 1.29289,1.29291 2,2c0.70711,0.70709 2.69344,1.4588 4,2c0.92388,0.38269 2.15224,0.23462 4,1c1.30656,0.5412 2.82375,1.48627 5,2c1.9465,0.4595 4.0535,0.5405 6,1c2.17625,0.51373 4.82375,1.48627 7,2c1.9465,0.4595 5,0 7,0c3,0 5,0 8,0c2,0 5.15224,0.76538 7,0c1.30656,-0.5412 2.69344,-1.4588 4,-2c0.92387,-0.38269 2.07613,-0.61731 3,-1c1.30656,-0.5412 1.29289,-1.29291 2,-2c0.70711,-0.70709 0.4588,-1.69345 1,-3c0.38269,-0.92389 0,-2 0,-3c0,-1 1,-1 1,-2c0,-1 0,-2 0,-3c0,-1 0,-2 0,-3c0,-1 0,-2 0,-3c0,-1 1,-1 1,-2c0,-1 0,-2 0,-3c0,-1 0,-2 -1,-2c-1,0 -1,-1 -2,-1c-1,0 -2,-1 -3,-1c-1,0 -2,0 -3,0c-2,0 -3,-1 -5,-1c-2,0 -3,0 -6,0c-1,0 -3,0 -5,0c-2,0 -4,0 -6,0c-1,0 -3,0 -5,0c-2,0 -4,0 -5,0c-2,0 -4,0 -5,0c-2,0 -3,0 -4,0c-1,0 -2.29289,1.70711 -3,1c-0.70711,-0.70711 1,-1 2,-1c1,0 2,0 3,0c1,0 2,0 3,0c1,0 1,-1 2,-1c1,0 2,0 3,0c1,0 2,0 3,0c1,0 2,0 3,0c1,0 2,0 3,0c1,0 2,0 3,0c1,0 2,0 3,0c1,0 2,0 3,0c1,0 2,0 3,0c1,0 2,0 3,0c1,0 2,0 3,0c1,0 2,0 3,0c1,0 2,0 3,0c1,0 2,0 3,0c1,0 1.07613,-0.61731 2,-1c1.30656,-0.5412 1,0 1,1c0,1 0,2 0,3c0,1 0,2 0,3c0,1 0.70711,2.29289 0,3c-0.70711,0.70711 -1,1 -1,2c0,1 0,2 0,3c0,1 0,2 0,3c0,1 0,2 0,3c0,1 0,2 0,3c0,1 0.38269,2.07611 0,3c-0.5412,1.30655 -1,2 -1,3c0,1 0,2 0,3c0,1 0,2 0,3c0,1 -1,1 -1,2c0,1 0,2 0,3c0,1 0,2 0,3c0,1 0,2 0,3c0,1 0.38269,2.07611 0,3c-0.5412,1.30655 -1,2 -1,3c0,1 0,2 0,3c0,1 -1,2 -1,3c0,1 0,2 0,3c0,1 -1,2 -1,3c0,1 -0.77025,2.02676 -1,3c-0.51375,2.17624 -0.61731,3.07611 -1,4c-0.5412,1.30655 -0.58578,2.58578 -2,4c-0.70711,0.70709 -1.61731,2.07611 -2,3c-0.5412,1.30655 -1.69255,2.186 -3,4c-0.8269,1.14728 -1.69255,2.186 -3,4c-0.8269,1.14728 -2,2 -3,3c-1,1 -2,1 -3,2c-1,1 -3.07612,1.61731 -4,2c-1.30656,0.5412 -3,1 -4,1c-1,0 -3,0 -4,0c-1,0 -2,0 -3,0c-1,0 -2,-1 -3,-1c-1,0 -1.29289,-0.29291 -2,-1c-0.70711,-0.70709 -0.29289,-1.29291 -1,-2c-0.70711,-0.70709 -1.29289,-0.29291 -2,-1c-0.70711,-0.70709 0.70711,-2.29291 0,-3c-0.70711,-0.70709 -1,-1 -1,-2c0,-1 0,-2 0,-3c0,-1 0,-2 0,-3c0,-1 0,-2 0,-3c0,-1 -0.70711,-2.29291 0,-3c0.70711,-0.70709 1,-1 1,-2c0,-1 1,-1 1,-2c0,-1 0.29289,-1.29291 1,-2c0.70711,-0.70709 0.61732,-1.07611 1,-2c0.5412,-1.30655 1.29289,-1.29291 2,-2c0.70711,-0.70709 0.29289,-1.29291 1,-2c0.70711,-0.70709 1.29289,-1.29291 2,-2c0.70711,-0.70709 1.07612,-0.61731 2,-1c1.30656,-0.5412 1.69344,-2.4588 3,-3c0.92388,-0.38269 0.69344,-1.4588 2,-2c0.92388,-0.38269 1,-1 2,-1c1,0 1.69344,-1.4588 3,-2c0.92388,-0.38269 1.07612,-0.61731 2,-1c1.30656,-0.5412 1.69344,-1.4588 3,-2c0.92387,-0.38269 1.29289,-0.29291 2,-1c0.70711,-0.70709 1.29289,-0.29291 2,-1c0.70711,-0.70709 1.29289,-0.29291 2,-1c0.70711,-0.70709 1.29289,-0.29291 2,-1c0.70711,-0.70709 1.29289,-0.29291 2,-1c0.70711,-0.70709 1,-1 2,-2c1,-1 1.29289,-1.29291 2,-2c0.70711,-0.70709 1.69344,-0.4588 3,-1c0.92387,-0.38269 1,-1 2,-1c1,0 1,-1 2,-1c1,0 1.69344,-1.4588 3,-2c0.92387,-0.38269 1,-1 2,-1c1,0 1,-1 2,-1c1,0 1.29289,-0.29291 2,-1c0.70711,-0.70709 1,-1 2,-1c1,0 1.29289,-0.29291 2,-1c0.70711,-0.70709 0.69344,-1.4588 2,-2c0.92387,-0.38269 1.29289,-0.29291 2,-1c0.70711,-0.70709 1.29289,-0.29291 2,-1c0.70711,-0.70709 0.29289,-1.29291 1,-2c0.70711,-0.70709 1,-1 2,-1c1,0 1.29289,-0.29289 2,-1c0.70711,-0.70711 0.29289,-1.29289 1,-2c0.70711,-0.70711 1.29289,-0.29289 2,-1c0.70711,-0.70711 0.29289,-1.29289 1,-2c0.70711,-0.70711 0.29289,-1.29289 1,-2c0.70711,-0.70711 0.29289,-1.29289 1,-2c0.70711,-0.70711 2,0 2,-1c0,-1 1,-1 1,-2c0,-1 0.29289,-1.29289 1,-2c0.70711,-0.70711 0.29289,-1.29289 1,-2c0.70711,-0.70711 0.29289,-1.29289 1,-2c0.70711,-0.70711 0.70711,0.29289 0,1c-0.70711,0.70711 -1.29289,0.29289 -2,1c-0.70711,0.70711 -1.29289,1.29289 -2,2c-0.70711,0.70711 -0.07613,1.61731 -1,2c-1.30656,0.5412 -2.29289,1.29289 -3,2c-0.70711,0.70711 -0.29289,1.29289 -1,2c-0.70711,0.70711 -0.61731,1.07613 -1,2c-0.5412,1.30656 -1.4588,1.69344 -2,3c-0.38269,0.92387 -1,1 -1,2c0,1 0,2 0,3c0,1 0.29289,1.29291 1,2c0.70711,0.70709 0.07613,1.61731 1,2c1.30656,0.5412 1.07613,1.61731 2,2c1.30656,0.5412 1.29289,1.29291 2,2c0.70711,0.70709 1.29289,0.29291 2,1c0.70711,0.70709 1.69344,0.4588 3,1c0.92387,0.38269 2.07613,-0.38269 3,0c1.30656,0.5412 2,1 3,1c1,0 2,0 3,0c1,0 2.07613,0.38269 3,0c1.30656,-0.5412 2,-1 3,-2c1,-1 2.07613,-0.61731 3,-1c1.30656,-0.5412 3,-2 4,-3c1,-1 2.61731,-2.07611 3,-3c1.0824,-2.61313 3,-3 4,-4c1,-1 2.61731,-2.07613 3,-3c0.5412,-1.30656 2,-2 3,-3c1,-1 1.69344,-3.4588 3,-4c0.92387,-0.38269 1.29289,-1.29289 2,-2c0.70711,-0.70711 1,-1 1,-2c0,-1 0.38269,-2.07613 0,-3c-0.5412,-1.30656 -1.29289,-1.29289 -2,-2c-0.70711,-0.70711 -0.29289,-1.29289 -1,-2c-0.70711,-0.70711 -1.29289,-0.29289 -2,-1c-0.70711,-0.70711 -1.29289,-0.29289 -2,-1c-0.70711,-0.70711 -0.69344,-1.4588 -2,-2c-0.92387,-0.38269 -2,-1 -3,-1c-1,0 -2,-1 -3,-1c-1,0 -2,0 -3,0c-1,0 -2,0 -3,0c-1,0 -2,0 -3,0c-1,0 -1,1 -2,1c-1,0 -1,1 -2,1c-1,0 -0.69344,1.4588 -2,2c-0.92387,0.38269 -1,1 -2,1c-1,0 -1.29289,0.29289 -2,1c-0.70711,0.70711 -1,2 -2,2c-1,0 -1,1 -2,1c-1,0 -1.29289,0.29289 -2,1c-0.70711,0.70711 -1.61731,0.07613 -2,1c-0.5412,1.30656 0,1 -1,1c-1,0 -1,1 -2,1c-1,0 -1.29289,0.29289 -2,1c-0.70711,0.70711 -0.29289,1.29289 -1,2c-0.70711,0.70711 -0.70711,-0.29289 0,-1c0.70711,-0.70711 1.29289,-0.29289 2,-1c0.70711,-0.70711 0.61731,-1.07613 1,-2c0.5412,-1.30656 1.29289,-1.29289 2,-2c0.70711,-0.70711 1.29289,-0.29289 2,-1c0.70711,-0.70711 0.29289,-1.29289 1,-2c0.70711,-0.70711 2,0 2,-1c0,-1 1.07613,-0.61731 2,-1c1.30656,-0.5412 1.29289,-1.29289 2,-2c0.70711,-0.70711 2.29289,0.70711 3,0c0.70711,-0.70711 0.29289,-1.29289 1,-2c0.70711,-0.70711 2.29289,0.70711 3,0c0.70711,-0.70711 1,-1 2,-1c1,0 1.29289,-0.29289 2,-1c0.70711,-0.70711 2,0 3,0c1,0 2,0 3,0c1,0 2,0 3,0c1,0 2,0 3,0c1,0 1.29289,0.29289 2,1c0.70711,0.70711 2.07613,-0.38269 3,0c1.30656,0.5412 2.29289,0.29289 3,1c0.70711,0.70711 1,1 1,2c0,1 0.29289,1.29289 1,2c0.70711,0.70711 0,2 0,3c0,1 0.29289,1.29289 1,2c0.70711,0.70711 0,0 0,-1c0,-1 0,-2 0,-3c0,-1 0.29289,-1.29289 1,-2c0.70711,-0.70711 0,-2 0,-3c0,-1 0,-2 0,-3c0,-1 0,-2 0,-3c0,-1 0,-2 0,-3c0,-1 1,-3 0,-3c-1,0 0,2 0,3c0,1 -1,1 -1,2c0,1 -0.4588,1.69344 -1,3c-0.38269,0.92387 0.70711,2.29289 0,3c-0.70711,0.70711 -1,1 -1,2c0,1 0.70711,2.29289 0,3c-0.70711,0.70711 -1,1 -1,2c0,1 -0.29289,1.29289 -1,2c-0.70711,0.70711 0,2 0,3c0,1 -0.29289,1.29289 -1,2c-0.70711,0.70711 0,2 0,3c0,1 0.4588,1.69344 1,3c0.38269,0.92387 0,2 0,3c0,1 1,2 1,3c0,1 1,1 1,2c0,1 0.29289,1.29291 1,2c0.70711,0.70709 1,1 2,1c1,0 1.29289,-0.29291 2,-1c0.70711,-0.70709 1,-1 1,-2c0,-1 0.29289,-1.29289 1,-2c0.70711,-0.70711 1.29289,-0.29289 2,-1c0.70711,-0.70711 0.29289,-1.29289 1,-2c0.70711,-0.70711 1,-1 1,-2c0,-1 1,-1 1,-2c0,-1 1,-1 1,-2c0,-1 1,-1 1,-2c0,-1 0.29289,-1.29289 1,-2c0.70711,-0.70711 0.29289,-1.29289 1,-2c0.70711,-0.70711 1,-1 1,-2c0,-1 0.29289,-1.29289 1,-2c0.70711,-0.70711 0,-2 0,-3c0,-1 1,-1 1,-2c0,-1 0.29289,-1.29289 1,-2c0.70711,-0.70711 -0.70711,-2.29289 0,-3c0.70711,-0.70711 1.29289,-0.29289 2,-1c0.70711,-0.70711 1,-1 1,-2c0,-1 1.29289,-0.29289 2,-1c0.70711,-0.70711 0,-2 1,-2c1,0 1.29289,-1.70711 2,-1c0.70711,0.70711 1,1 1,2c0,1 0.61731,2.07613 1,3c0.5412,1.30656 1.4588,1.69344 2,3c0.38269,0.92387 1,2 1,3c0,1 1,2 1,3c0,1 1,2 1,4c0,1 1,1 1,2c0,1 1,2 1,3c0,1 0.29291,1.29289 1,2c0.70709,0.70711 0,2 0,3c0,1 0,2 0,3c0,1 0,2 0,3c0,1 0,2 0,3c0,1 0,2 0,3c0,1 0,2 0,3c0,1 -1,3 0,3c1,0 0,-2 0,-3c0,-1 0,-2 0,-3c0,-1 0,-2 0,-3c0,-1 0,-2 0,-3c0,-1 0,-2 0,-3c0,-2 0.29291,-2.29289 1,-3c0.70709,-0.70711 0,-3 0,-4c0,-1 1,-2 1,-3c0,-1 0,-2 0,-3c0,-1 0.29291,-1.29289 1,-2c0.70709,-0.70711 -0.70709,-2.29289 0,-3c0.70709,-0.70711 0.29291,-1.29289 1,-2c0.70709,-0.70711 1,-1 2,-1c1,0 0.29291,-1.29289 1,-2c0.70709,-0.70711 1.29291,-1.29289 2,-2c0.70709,-0.70711 1.29291,-0.29289 2,-1c0.70709,-0.70711 0.29291,-1.29289 1,-2c0.70709,-0.70711 1.29291,-0.29289 2,-1c0.70709,-0.70711 2,0 3,0c1,0 1.29291,0.29289 2,1c0.70709,0.70711 1.4588,1.69344 2,3c0.38269,0.92387 0.29291,1.29289 1,2c0.70709,0.70711 1,2 1,3c0,1 0.4588,1.69344 1,3c0.38269,0.92387 0.4588,1.69344 1,3c0.38269,0.92387 0,2 0,3c0,1 1,3 1,5c0,1 0,2 0,3c0,1 0,2 0,3c0,1 0,2 0,4c0,1 0,2 0,3c0,1 0,2 0,3c0,1 0,2 0,3c0,1 0,2 0,1c0,-1 0,-2 0,-3c0,-2 0,-3 0,-4c0,-1 0,-2 0,-3c0,-1 0,-2 0,-3c0,-1 0,-2 0,-3c0,-2 0.4588,-2.69344 1,-4c0.38269,-0.92387 -0.38269,-2.07613 0,-3c0.5412,-1.30656 1,-2 1,-3c0,-1 0.29291,-1.29289 1,-2c0.70709,-0.70711 0,-2 0,-3c0,-1 0.29291,-1.29289 1,-2c0.70709,-0.70711 0.29291,-1.29289 1,-2c0.70709,-0.70711 1.4588,-0.69344 2,-2c0.38269,-0.92387 0.29291,-1.29289 1,-2c0.70709,-0.70711 1.29291,-0.29289 2,-1c0.70709,-0.70711 0.29291,-1.29289 1,-2c0.70709,-0.70711 1.29291,-0.29289 2,-1c0.70709,-0.70711 1,-1 2,-1c1,0 2,0 3,0c1,0 1.29291,0.29289 2,1c0.70709,0.70711 0.29291,1.29289 1,2c0.70709,0.70711 0.29291,1.29289 1,2c0.70709,0.70711 0.29291,1.29289 1,2c0.70709,0.70711 0.29291,1.29289 1,2c0.70709,0.70711 1,1 1,2c0,1 1,2 1,3c0,1 0.29291,1.29289 1,2c0.70709,0.70711 0,2 0,3c0,1 1,1 1,2c0,1 0.29291,1.29289 1,2c0.70709,0.70711 0.29291,1.29289 1,2c0.70709,0.70711 1.29291,0.29289 2,1c0.70709,0.70711 0.29291,1.29289 1,2c0.70709,0.70711 1.29291,0.29289 2,1c0.70709,0.70711 1.29291,0.29289 2,1c0.70709,0.70711 1,2 2,2c1,0 1.29291,0.29289 2,1c0.70709,0.70711 2,0 3,0c1,0 2,0 3,0c1,0 2,0 3,0c1,0 1.29291,0.29289 2,1c0.70709,0.70711 2,0 3,0c1,0 2,0 3,0c1,0 1.29291,-0.29289 2,-1c0.70709,-0.70711 2.07611,0.38269 3,0c1.30655,-0.5412 2.29291,-0.29289 3,-1c0.70709,-0.70711 0.69345,-1.4588 2,-2c0.92389,-0.38269 1.69345,-1.4588 3,-2c0.92389,-0.38269 1.69345,-1.4588 3,-2c0.92389,-0.38269 2,-1 3,-2c1,-1 1.186,-1.69255 3,-3c1.14728,-0.8269 1.29291,-1.29289 2,-2c0.70709,-0.70711 1.29291,-1.29289 2,-2c0.70709,-0.70711 0.29291,-1.29289 1,-2c0.70709,-0.70711 0.29291,-2.29289 1,-3c0.70709,-0.70711 1,-1 1,-2c0,-1 1,-1 1,-2c0,-1 0.70709,-2.29289 0,-3c-0.70709,-0.70711 -0.61731,-1.07613 -1,-2c-0.5412,-1.30656 -1.29291,-1.29289 -2,-2c-0.70709,-0.70711 -1,-1 -2,-1c-1,0 -2.07611,0.38269 -3,0c-1.30655,-0.5412 -2,-1 -3,-1c-1,0 -1.29291,0.29289 -2,1c-0.70709,0.70711 -2.07611,0.61731 -3,1c-1.30655,0.5412 -1.69254,1.186 -3,3c-0.8269,1.14726 -2,2 -3,3c-1,1 -2.1731,2.85274 -3,4c-1.30746,1.814 -2,4 -3,6c-1,2 -1.5405,3.0535 -2,5c-0.51373,2.17625 -1.58578,2.58578 -3,4c-2.12131,2.12132 -1.48627,3.82375 -2,6c-0.4595,1.9465 -0.77023,3.02675 -1,4c-0.51373,2.17624 -1,4 -1,5c0,1 0,2 0,3c0,1 -0.29291,1.29291 -1,2c-0.70709,0.70709 1,1 1,2c0,1 0.29291,1.29291 1,2c0.70709,0.70709 1.29291,0.29291 2,1c0.70709,0.70709 2,0 3,0c1,0 2,1 3,1c1,0 2,0 3,0c1,0 2,0 3,0c1,0 2,0 3,0c1,0 2,0 3,0c1,0 2,0 3,0c1,0 1.29291,-0.29291 2,-1c0.70709,-0.70709 1.29291,-0.29291 2,-1c0.70709,-0.70709 1.29291,-0.29291 2,-1c0.70709,-0.70709 1.29291,-0.29291 2,-1c0.70709,-0.70709 0.29291,-1.29291 1,-2c0.70709,-0.70709 1.29291,-0.29291 2,-1c0.70709,-0.70709 1.29291,-0.29291 2,-1c0.70709,-0.70709 1.29291,-0.29291 2,-1c0.70709,-0.70709 1,-1 2,-1c1,0 1,-2 2,-2c1,0 0.29291,-1.29291 1,-2c0.70709,-0.70709 1.69345,-0.4588 3,-1c0.92389,-0.38269 1.29291,-0.29289 2,-1c0.70709,-0.70711 1.29291,-0.29289 2,-1c0.70709,-0.70711 0.29291,-1.29289 1,-2c0.70709,-0.70711 1.29291,-0.29289 2,-1c0.70709,-0.70711 1.29291,-1.29289 2,-2c0.70709,-0.70711 0,-2 1,-2c1,0 1.29291,-0.29289 2,-1c0.70709,-0.70711 1,-1 1,-2c0,-1 0.29291,-1.29289 1,-2c0.70709,-0.70711 1.29291,-0.29289 2,-1c0.70709,-0.70711 1,-1 1,-2c0,-1 0.29291,-1.29289 1,-2c0.70709,-0.70711 0.29291,-1.29289 1,-2c0.70709,-0.70711 -0.70709,-2.29289 0,-3c0.70709,-0.70711 1,-1 1,-2c0,-1 0.4588,-1.69344 1,-3c0.38269,-0.92387 0,-2 0,-3c0,-1 0,-2 0,-3c0,-1 0,-2 0,-3c0,-1 0,-2 0,-3c0,-1 0,0 0,1c0,1 0.29291,1.29289 1,2c0.70709,0.70711 0.29291,1.29289 1,2c0.70709,0.70711 1.29291,0.29289 2,1c0.70709,0.70711 0.29291,1.29289 1,2c0.70709,0.70711 1.29291,1.29289 2,2c0.70709,0.70711 1.29291,0.29289 2,1c0.70709,0.70711 1.07611,0.61731 2,1c1.30655,0.5412 1.29291,1.29289 2,2c0.70709,0.70711 1.29291,0.29289 2,1c0.70709,0.70711 1.29291,0.29289 2,1c0.70709,0.70711 0.29291,1.29289 1,2c0.70709,0.70711 1.29291,0.29289 2,1c0.70709,0.70711 0.61731,1.07613 1,2c0.5412,1.30656 2,1 2,2c0,1 0.61731,1.07613 1,2c0.5412,1.30656 2,2 2,3c0,1 0.61731,1.07613 1,2c0.5412,1.30656 1.29291,1.29289 2,2c0.70709,0.70711 0,2 0,3c0,1 0,2 0,3c0,1 0,2 0,3c0,1 -1,1 -1,2c0,1 -0.61731,2.07611 -1,3c-0.5412,1.30655 -0.29291,2.29291 -1,3c-0.70709,0.70709 -1.29291,0.29291 -2,1c-0.70709,0.70709 -1.29291,1.29291 -2,2c-0.70709,0.70709 -0.29291,1.29291 -1,2c-0.70709,0.70709 -2,0 -3,0c-1,0 -2,0 -3,0c-1,0 -1.29291,-0.29291 -2,-1c-0.70709,-0.70709 -3,0 -4,0c-1,0 -1,-1 -2,-1c-1,0 -1.29291,-0.29291 -2,-1c-0.70709,-0.70709 -2.29291,-0.29291 -3,-1c-0.70709,-0.70709 -2.07611,0.38269 -3,0c-1.30655,-0.5412 -2,-1 -3,-1c-1,0 -2,-1 -3,-1c-1,0 -1.29291,-0.29291 -2,-1c-0.70709,-0.70709 -0.29291,-1.29291 -1,-2c-0.70709,-0.70709 -1,-1 -1,-2l-1,0l0,-1" id="gamesSvg" stroke-width="8" stroke="#961119" fill="none"/>
 </g>
</svg>