<svg xmlns="http://www.w3.org/2000/svg" width="500" height="300" xmlns:v="https://vecta.io/nano"><path id='gamesSvg' d="M126 104c1 0 2.293.707 3 0s1.076-1.617 2-2c1.307-.541 1.293-1.293 2-2s.293-1.293 1-2l2-2c.707-.707.293-1.293 1-2s.293-1.293 1-2 .617-1.076 1-2c.541-1.307 1-2 1-3v-3-3c0-1-1-1-1-2s-1-1-1-2-1.293-1.293-2-2-.293-1.293-1-2-.617-1.076-1-2c-.541-1.307-1.149-1.474-2-2-1.902-1.176-2.293-1.293-3-2s-.293-1.293-1-2-1.293-.293-2-1-2 0-3 0h-3-3-3-3c-1 0-1 1-2 1s-2.293 1.293-3 2c-1.414 1.414-3.459-.307-4 1-.383.924-1.693 1.459-3 2-1.848.765-2.186.693-4 2-1.147.827-2.299.949-4 2-1.902 1.176-2.853 2.173-4 3-1.814 1.307-3.419 1.419-5 3l-4 4c-1 1-2.693 2.186-4 4-.827 1.147-3.173 1.853-4 3-1.307 1.814-2 3-3 4s-1.459 1.693-2 3c-.383.924-1.293 1.293-2 2s-.617 3.076-1 4c-.541 1.307-1 2-1 3v4 4 4c0 2 .486 2.824 1 5l1 4c.541 1.307 1.77 3.027 2 4 .514 2.176 1.459 2.693 2 4 .383.924 1.459 2.693 2 4 .383.924 1 1 1 2s.617 1.076 1 2c.541 1.307 1.293 1.293 2 2s1.293.293 2 1 .293 1.293 1 2 1.293.293 2 1l2 2c.707.707 2.693 1.459 4 2 .924.383 2.152.235 4 1 1.307.541 2.824 1.486 5 2 1.947.459 4.053.541 6 1l7 2c1.947.459 5 0 7 0h8c2 0 5.152.765 7 0 1.307-.541 2.693-1.459 4-2 .924-.383 2.076-.617 3-1 1.307-.541 1.293-1.293 2-2s.459-1.693 1-3c.383-.924 0-2 0-3s1-1 1-2v-3-3-3c0-1 1-1 1-2v-3c0-1 0-2-1-2s-1-1-2-1-2-1-3-1h-3c-2 0-3-1-5-1h-6-5-6-5-5-5-4c-1 0-2.293 1.707-3 1s1-1 2-1h3 3c1 0 1-1 2-1h3 3 3 3 3 3 3 3 3 3 3 3 3c1 0 1.076-.617 2-1 1.307-.541 1 0 1 1v3 3c0 1 .707 2.293 0 3s-1 1-1 2v3 3 3 3c0 1 .383 2.076 0 3-.541 1.307-1 2-1 3v3 3c0 1-1 1-1 2v3 3 3c0 1 .383 2.076 0 3-.541 1.307-1 2-1 3v3c0 1-1 2-1 3v3c0 1-1 2-1 3s-.77 2.027-1 3l-1 4c-.541 1.307-.586 2.586-2 4-.707.707-1.617 2.076-2 3-.541 1.307-1.693 2.186-3 4l-3 4c-.827 1.147-2 2-3 3s-2 1-3 2-3.076 1.617-4 2c-1.307.541-3 1-4 1h-4-3c-1 0-2-1-3-1s-1.293-.293-2-1-.293-1.293-1-2-1.293-.293-2-1 .707-2.293 0-3-1-1-1-2v-3-3-3c0-1-.707-2.293 0-3s1-1 1-2 1-1 1-2 .293-1.293 1-2 .617-1.076 1-2c.541-1.307 1.293-1.293 2-2s.293-1.293 1-2l2-2c.707-.707 1.076-.617 2-1 1.307-.541 1.693-2.459 3-3 .924-.383.693-1.459 2-2 .924-.383 1-1 2-1s1.693-1.459 3-2c.924-.383 1.076-.617 2-1 1.307-.541 1.693-1.459 3-2 .924-.383 1.293-.293 2-1s1.293-.293 2-1 1.293-.293 2-1 1.293-.293 2-1 1.293-.293 2-1l2-2 2-2c.707-.707 1.693-.459 3-1 .924-.383 1-1 2-1s1-1 2-1 1.693-1.459 3-2c.924-.383 1-1 2-1s1-1 2-1 1.293-.293 2-1 1-1 2-1 1.293-.293 2-1 .693-1.459 2-2c.924-.383 1.293-.293 2-1s1.293-.293 2-1 .293-1.293 1-2 1-1 2-1 1.293-.293 2-1 .293-1.293 1-2 1.293-.293 2-1 .293-1.293 1-2 .293-1.293 1-2 .293-1.293 1-2 2 0 2-1 1-1 1-2 .293-1.293 1-2 .293-1.293 1-2 .293-1.293 1-2 .707.293 0 1-1.293.293-2 1l-2 2c-.707.707-.076 1.617-1 2-1.307.541-2.293 1.293-3 2s-.293 1.293-1 2-.617 1.076-1 2c-.541 1.307-1.459 1.693-2 3-.383.924-1 1-1 2v3c0 1 .293 1.293 1 2s.076 1.617 1 2c1.307.541 1.076 1.617 2 2 1.307.541 1.293 1.293 2 2s1.293.293 2 1 1.693.459 3 1c.924.383 2.076-.383 3 0 1.307.541 2 1 3 1h3c1 0 2.076.383 3 0 1.307-.541 2-1 3-2s2.076-.617 3-1c1.307-.541 3-2 4-3s2.617-2.076 3-3c1.082-2.613 3-3 4-4s2.617-2.076 3-3c.541-1.307 2-2 3-3s1.693-3.459 3-4c.924-.383 1.293-1.293 2-2s1-1 1-2 .383-2.076 0-3c-.541-1.307-1.293-1.293-2-2s-.293-1.293-1-2-1.293-.293-2-1-1.293-.293-2-1-.693-1.459-2-2c-.924-.383-2-1-3-1s-2-1-3-1h-3-3-3c-1 0-1 1-2 1s-1 1-2 1-.693 1.459-2 2c-.924.383-1 1-2 1s-1.293.293-2 1-1 2-2 2-1 1-2 1-1.293.293-2 1-1.617.076-2 1c-.541 1.307 0 1-1 1s-1 1-2 1-1.293.293-2 1-.293 1.293-1 2-.707-.293 0-1 1.293-.293 2-1 .617-1.076 1-2c.541-1.307 1.293-1.293 2-2s1.293-.293 2-1 .293-1.293 1-2 2 0 2-1 1.076-.617 2-1c1.307-.541 1.293-1.293 2-2s2.293.707 3 0 .293-1.293 1-2 2.293.707 3 0 1-1 2-1 1.293-.293 2-1 2 0 3 0h3 3 3c1 0 1.293.293 2 1s2.076-.383 3 0c1.307.541 2.293.293 3 1s1 1 1 2 .293 1.293 1 2 0 2 0 3 .293 1.293 1 2 0 0 0-1v-3c0-1 .293-1.293 1-2s0-2 0-3v-3-3-3c0-1 1-3 0-3s0 2 0 3-1 1-1 2-.459 1.693-1 3c-.383.924.707 2.293 0 3s-1 1-1 2 .707 2.293 0 3-1 1-1 2-.293 1.293-1 2 0 2 0 3-.293 1.293-1 2 0 2 0 3 .459 1.693 1 3c.383.924 0 2 0 3s1 2 1 3 1 1 1 2 .293 1.293 1 2 1 1 2 1 1.293-.293 2-1 1-1 1-2 .293-1.293 1-2 1.293-.293 2-1 .293-1.293 1-2 1-1 1-2 1-1 1-2 1-1 1-2 1-1 1-2 .293-1.293 1-2 .293-1.293 1-2 1-1 1-2 .293-1.293 1-2 0-2 0-3 1-1 1-2 .293-1.293 1-2-.707-2.293 0-3 1.293-.293 2-1 1-1 1-2 1.293-.293 2-1 0-2 1-2 1.293-1.707 2-1 1 1 1 2 .617 2.076 1 3c.541 1.307 1.459 1.693 2 3 .383.924 1 2 1 3s1 2 1 3 1 2 1 4c0 1 1 1 1 2s1 2 1 3 .293 1.293 1 2 0 2 0 3v3 3 3 3 3c0 1-1 3 0 3s0-2 0-3v-3-3-3-3c0-2 .293-2.293 1-3s0-3 0-4 1-2 1-3v-3c0-1 .293-1.293 1-2s-.707-2.293 0-3 .293-1.293 1-2 1-1 2-1 .293-1.293 1-2l2-2c.707-.707 1.293-.293 2-1s.293-1.293 1-2 1.293-.293 2-1 2 0 3 0 1.293.293 2 1 1.459 1.693 2 3c.383.924.293 1.293 1 2s1 2 1 3 .459 1.693 1 3c.383.924.459 1.693 1 3 .383.924 0 2 0 3s1 3 1 5v3 3 4 3 3 3 1-3-4-3-3-3c0-2 .459-2.693 1-4 .383-.924-.383-2.076 0-3 .541-1.307 1-2 1-3s.293-1.293 1-2 0-2 0-3 .293-1.293 1-2 .293-1.293 1-2 1.459-.693 2-2c.383-.924.293-1.293 1-2s1.293-.293 2-1 .293-1.293 1-2 1.293-.293 2-1 1-1 2-1h3c1 0 1.293.293 2 1s.293 1.293 1 2 .293 1.293 1 2 .293 1.293 1 2 .293 1.293 1 2 1 1 1 2 1 2 1 3 .293 1.293 1 2 0 2 0 3 1 1 1 2 .293 1.293 1 2 .293 1.293 1 2 1.293.293 2 1 .293 1.293 1 2 1.293.293 2 1 1.293.293 2 1 1 2 2 2 1.293.293 2 1 2 0 3 0h3 3c1 0 1.293.293 2 1s2 0 3 0h3c1 0 1.293-.293 2-1s2.076.383 3 0c1.307-.541 2.293-.293 3-1s.693-1.459 2-2c.924-.383 1.693-1.459 3-2 .924-.383 1.693-1.459 3-2 .924-.383 2-1 3-2s1.186-1.693 3-3c1.147-.827 1.293-1.293 2-2l2-2c.707-.707.293-1.293 1-2s.293-2.293 1-3 1-1 1-2 1-1 1-2 .707-2.293 0-3-.617-1.076-1-2c-.541-1.307-1.293-1.293-2-2s-1-1-2-1-2.076.383-3 0c-1.307-.541-2-1-3-1s-1.293.293-2 1-2.076.617-3 1c-1.307.541-1.693 1.186-3 3-.827 1.147-2 2-3 3s-2.173 2.853-3 4c-1.307 1.814-2 4-3 6s-1.541 3.054-2 5c-.514 2.176-1.586 2.586-3 4-2.121 2.121-1.486 3.824-2 6l-1 4-1 5v3c0 1-.293 1.293-1 2s1 1 1 2 .293 1.293 1 2 1.293.293 2 1 2 0 3 0 2 1 3 1h3 3 3 3 3c1 0 1.293-.293 2-1s1.293-.293 2-1 1.293-.293 2-1 1.293-.293 2-1 .293-1.293 1-2 1.293-.293 2-1 1.293-.293 2-1 1.293-.293 2-1 1-1 2-1 1-2 2-2 .293-1.293 1-2 1.693-.459 3-1c.924-.383 1.293-.293 2-1s1.293-.293 2-1 .293-1.293 1-2 1.293-.293 2-1l2-2c.707-.707 0-2 1-2s1.293-.293 2-1 1-1 1-2 .293-1.293 1-2 1.293-.293 2-1 1-1 1-2 .293-1.293 1-2 .293-1.293 1-2-.707-2.293 0-3 1-1 1-2 .459-1.693 1-3c.383-.924 0-2 0-3v-3-3-3c0-1 0 0 0 1s.293 1.293 1 2 .293 1.293 1 2 1.293.293 2 1 .293 1.293 1 2l2 2c.707.707 1.293.293 2 1s1.076.617 2 1c1.307.541 1.293 1.293 2 2s1.293.293 2 1 1.293.293 2 1 .293 1.293 1 2 1.293.293 2 1 .617 1.076 1 2c.541 1.307 2 1 2 2s.617 1.076 1 2c.541 1.307 2 2 2 3s.617 1.076 1 2c.541 1.307 1.293 1.293 2 2s0 2 0 3v3 3c0 1-1 1-1 2s-.617 2.076-1 3c-.541 1.307-.293 2.293-1 3s-1.293.293-2 1l-2 2c-.707.707-.293 1.293-1 2s-2 0-3 0h-3c-1 0-1.293-.293-2-1s-3 0-4 0-1-1-2-1-1.293-.293-2-1-2.293-.293-3-1-2.076.383-3 0c-1.307-.541-2-1-3-1s-2-1-3-1-1.293-.293-2-1-.293-1.293-1-2-1-1-1-2h-1v-1" stroke-width="8" stroke="#000" fill="none"/></svg>